<svg width="521" height="193" viewBox="0 0 521 193" fill="none" xmlns="http://www.w3.org/2000/svg">
<path d="M19.6 192.35C3.67 192.35 0.7 184.79 0.7 166.97V26.03C0.7 7.93999 3.67 0.649988 19.6 0.649988C35.26 0.649988 38.23 7.93999 38.23 26.03V76.52H27.16V54.92C27.16 43.58 26.89 40.88 19.6 40.88C12.31 40.88 11.77 43.58 11.77 54.92V138.08C11.77 149.42 12.31 152.12 19.6 152.12C26.89 152.12 27.16 149.42 27.16 138.08V107.57H20.68V88.13H38.23V166.97C38.23 184.79 35.26 192.35 19.6 192.35ZM43.6785 191V1.99999H77.6985V42.23H54.7485V84.89H70.9485V104.33H54.7485V150.77H79.5885V191H43.6785ZM84.5477 191V1.99999H104.528C117.488 1.99999 123.158 9.28999 123.158 26.03V76.25C123.158 89.21 120.188 94.34 111.818 94.88V95.42C120.458 96.5 123.158 101.9 123.158 115.4V191H112.088V118.91C112.088 110.27 110.738 104.87 103.178 104.87H95.6177V191H84.5477ZM95.6177 85.43H103.448C110.738 85.43 112.088 82.73 112.088 71.39V56.27C112.088 44.93 110.738 42.23 103.448 42.23H95.6177V85.43ZM128.317 191V1.99999H148.297C163.957 1.99999 166.927 9.28999 166.927 26.03V77.06C166.927 85.7 165.307 93.53 156.937 94.88V95.42C165.577 96.5 168.277 101.9 168.277 115.4V168.59C168.277 185.33 163.957 191 148.297 191H128.317ZM139.387 150.77H148.027C155.317 150.77 157.207 148.07 157.207 136.73V118.91C157.207 107.57 155.317 104.87 148.027 104.87H139.387V150.77ZM139.387 85.43H147.217C154.507 85.43 155.857 82.73 155.857 71.39V56.27C155.857 44.93 154.507 42.23 147.217 42.23H139.387V85.43ZM173.141 191V1.99999H207.161V42.23H184.211V84.89H200.411V104.33H184.211V150.77H209.051V191H173.141ZM214.011 191V1.99999H233.991C246.951 1.99999 252.621 9.28999 252.621 26.03V76.25C252.621 89.21 249.651 94.34 241.281 94.88V95.42C249.921 96.5 252.621 101.9 252.621 115.4V191H241.551V118.91C241.551 110.27 240.201 104.87 232.641 104.87H225.081V191H214.011ZM225.081 85.43H232.911C240.201 85.43 241.551 82.73 241.551 71.39V56.27C241.551 44.93 240.201 42.23 232.911 42.23H225.081V85.43ZM257.24 191V150.77H269.66V191H257.24ZM280.331 191L272.231 1.99999H283.841L288.971 135.65H289.781L296.531 1.99999H313.271L320.021 135.65H320.831L325.961 1.99999H337.571L329.471 191H311.651L305.171 54.65H304.361L298.151 191H280.331ZM338.137 191V1.99999H349.207V191H338.137ZM376.078 192.35C360.148 192.35 357.178 184.79 357.178 166.97V124.31H368.518V138.08C368.518 149.42 368.788 152.12 376.078 152.12C383.368 152.12 383.368 148.61 383.368 138.08C383.368 104.06 357.178 91.1 357.178 57.08V26.03C357.178 7.93999 360.148 0.649988 376.078 0.649988C391.738 0.649988 394.708 7.93999 394.708 26.03V67.61H383.368V55.73C383.368 44.39 383.368 40.88 376.078 40.88C368.788 40.88 368.518 45.2 368.518 55.73C368.518 89.75 394.708 100.01 394.708 136.73V166.97C394.708 184.79 392.008 192.35 376.078 192.35ZM426.359 191V104.33H410.969V191H399.899V1.99999H410.969V84.89H426.359V1.99999H437.429V191H426.359ZM442.878 191V1.99999H476.898V42.23H453.948V84.89H470.148V104.33H453.948V150.77H478.788V191H442.878ZM502.377 192.35C486.447 192.35 483.477 184.79 483.477 166.97V124.31H494.817V138.08C494.817 149.42 495.087 152.12 502.377 152.12C509.667 152.12 509.667 148.61 509.667 138.08C509.667 104.06 483.477 91.1 483.477 57.08V26.03C483.477 7.93999 486.447 0.649988 502.377 0.649988C518.037 0.649988 521.007 7.93999 521.007 26.03V67.61H509.667V55.73C509.667 44.39 509.667 40.88 502.377 40.88C495.087 40.88 494.817 45.2 494.817 55.73C494.817 89.75 521.007 100.01 521.007 136.73V166.97C521.007 184.79 518.307 192.35 502.377 192.35Z" fill="black" fill-opacity="0.9"/>
</svg>
