<svg width="564" height="193" viewBox="0 0 564 193" fill="none" xmlns="http://www.w3.org/2000/svg">
<path d="M545.355 192.35C529.425 192.35 526.455 184.79 526.455 166.97V124.31H537.795V138.08C537.795 149.42 538.065 152.12 545.355 152.12C552.645 152.12 552.645 148.61 552.645 138.08C552.645 104.06 526.455 91.1 526.455 57.08V26.03C526.455 7.93997 529.425 0.649963 545.355 0.649963C561.015 0.649963 563.985 7.93997 563.985 26.03V67.61H552.645V55.73C552.645 44.39 552.645 40.88 545.355 40.88C538.065 40.88 537.795 45.2 537.795 55.73C537.795 89.75 563.985 100.01 563.985 136.73V166.97C563.985 184.79 561.285 192.35 545.355 192.35Z" fill="black" fill-opacity="0.9"/>
<path d="M485.856 191V2H519.876V42.23H496.926V84.89H513.126V104.33H496.926V150.77H521.766V191H485.856Z" fill="black" fill-opacity="0.9"/>
<path d="M469.338 191V104.33H453.948V191H442.878V2H453.948V84.89H469.338V2H480.408V191H469.338Z" fill="black" fill-opacity="0.9"/>
<path d="M419.056 192.35C403.126 192.35 400.156 184.79 400.156 166.97V124.31H411.496V138.08C411.496 149.42 411.766 152.12 419.056 152.12C426.346 152.12 426.346 148.61 426.346 138.08C426.346 104.06 400.156 91.1 400.156 57.08V26.03C400.156 7.93997 403.126 0.649963 419.056 0.649963C434.716 0.649963 437.686 7.93997 437.686 26.03V67.61H426.346V55.73C426.346 44.39 426.346 40.88 419.056 40.88C411.766 40.88 411.496 45.2 411.496 55.73C411.496 89.75 437.686 100.01 437.686 136.73V166.97C437.686 184.79 434.986 192.35 419.056 192.35Z" fill="black" fill-opacity="0.9"/>
<path d="M381.115 191V2H392.185V191H381.115Z" fill="black" fill-opacity="0.9"/>
<path d="M367.297 191V104.33H351.907V191H340.837V2H351.907V84.89H367.297V2H378.367V191H367.297Z" fill="black" fill-opacity="0.9"/>
<path d="M280.331 191L272.231 2H283.841L288.971 135.65H289.781L296.531 2H313.271L320.021 135.65H320.831L325.961 2H337.571L329.471 191H311.651L305.171 54.65H304.361L298.151 191H280.331Z" fill="black" fill-opacity="0.9"/>
<path d="M257.24 191V150.77H269.66V191H257.24Z" fill="black" fill-opacity="0.9"/>
<path d="M214.011 191V2H233.991C246.951 2 252.621 9.29 252.621 26.03V76.25C252.621 89.21 249.651 94.34 241.281 94.88V95.42C249.921 96.5 252.621 101.9 252.621 115.4V191H241.551V118.91C241.551 110.27 240.201 104.87 232.641 104.87H225.081V191H214.011ZM225.081 85.43H232.911C240.201 85.43 241.551 82.73 241.551 71.39V56.27C241.551 44.93 240.201 42.23 232.911 42.23H225.081V85.43Z" fill="black" fill-opacity="0.9"/>
<path d="M173.141 191V2H207.161V42.23H184.211V84.89H200.411V104.33H184.211V150.77H209.051V191H173.141Z" fill="black" fill-opacity="0.9"/>
<path d="M128.317 191V2H148.297C163.957 2 166.927 9.29 166.927 26.03V77.06C166.927 85.7 165.307 93.53 156.937 94.88V95.42C165.577 96.5 168.277 101.9 168.277 115.4V168.59C168.277 185.33 163.957 191 148.297 191H128.317ZM139.387 150.77H148.027C155.317 150.77 157.207 148.07 157.207 136.73V118.91C157.207 107.57 155.317 104.87 148.027 104.87H139.387V150.77ZM139.387 85.43H147.217C154.507 85.43 155.857 82.73 155.857 71.39V56.27C155.857 44.93 154.507 42.23 147.217 42.23H139.387V85.43Z" fill="black" fill-opacity="0.9"/>
<path d="M84.5477 191V2H104.528C117.488 2 123.158 9.29 123.158 26.03V76.25C123.158 89.21 120.188 94.34 111.818 94.88V95.42C120.458 96.5 123.158 101.9 123.158 115.4V191H112.088V118.91C112.088 110.27 110.738 104.87 103.178 104.87H95.6177V191H84.5477ZM95.6177 85.43H103.448C110.738 85.43 112.088 82.73 112.088 71.39V56.27C112.088 44.93 110.738 42.23 103.448 42.23H95.6177V85.43Z" fill="black" fill-opacity="0.9"/>
<path d="M43.6785 191V2H77.6985V42.23H54.7485V84.89H70.9485V104.33H54.7485V150.77H79.5885V191H43.6785Z" fill="black" fill-opacity="0.9"/>
<path d="M19.6 192.35C3.67001 192.35 0.700012 184.79 0.700012 166.97V26.03C0.700012 7.93997 3.67001 0.649963 19.6 0.649963C35.26 0.649963 38.23 7.93997 38.23 26.03V76.52H27.16V54.92C27.16 43.58 26.89 40.88 19.6 40.88C12.31 40.88 11.77 43.58 11.77 54.92V138.08C11.77 149.42 12.31 152.12 19.6 152.12C26.89 152.12 27.16 149.42 27.16 138.08V107.57H20.68V88.13H38.23V166.97C38.23 184.79 35.26 192.35 19.6 192.35Z" fill="black" fill-opacity="0.9"/>
</svg>
