<svg width="378" height="42" viewBox="0 0 378 42" fill="none" xmlns="http://www.w3.org/2000/svg">
<path d="M367.125 41.6C364.075 41.6 361.275 40.2 359.275 38.25C358.475 37.45 357.875 37.5 357.675 38.65L357.225 40.95H355.975L356.075 26H357.375C357.725 33.25 361.525 39.5 367.025 39.5C371.325 39.5 373.175 36.15 373.175 33.05C373.175 28.45 369.625 25.5 365.525 22.4C360.525 18.6 356.325 15.45 356.325 9.55C356.325 3.6 360.625 0 366.275 0C369.175 0 371.175 0.900001 372.925 2.55C373.775 3.3 374.475 3.1 374.625 2L374.875 0.5H376.075L376.675 13.65H375.425C374.925 7.5 371.925 2.05 366.625 2.05C362.925 2.05 360.925 4.75 360.925 7.85C360.925 11.75 363.825 14.15 368.475 17.65C373.675 21.5 377.775 24.95 377.775 31.1C377.775 37.4 373.275 41.6 367.125 41.6Z" fill="black" fill-opacity="0.9"/>
<path d="M350.369 0.799988L350.519 2.29999L351.469 10.9L350.069 11.05C349.319 4.19998 348.169 3.04999 344.619 3.04999H337.469C335.919 3.04999 335.119 3.89999 335.119 5.39999V19.15H341.319C344.269 19.15 345.119 18.4 345.119 13.25H346.269V26.8H345.119C345.119 21.7 344.269 20.95 341.319 20.95H335.119V35.7C335.119 38.05 335.519 38.55 337.469 38.55H344.569C348.319 38.55 349.769 37.1 351.769 29.45L353.169 29.85L350.719 39.35L350.319 40.8H324.169V39.6C328.819 39.6 329.469 38.7 329.469 35.65V5.94999C329.469 2.89999 328.819 1.99999 324.169 1.99999V0.799988H350.369Z" fill="black" fill-opacity="0.9"/>
<path d="M322.811 0.799988V1.99999C318.161 1.99999 317.461 2.89999 317.461 5.94999V35.65C317.461 38.7 318.161 39.6 322.811 39.6V40.8H306.811V39.6C311.211 39.6 311.861 38.7 311.861 35.65V20.75H296.361V35.65C296.361 38.7 296.961 39.6 301.361 39.6V40.8H285.411V39.6C290.061 39.6 290.711 38.7 290.711 35.65V5.94999C290.711 2.89999 290.061 1.99999 285.411 1.99999V0.799988H301.361V1.99999C296.961 1.99999 296.361 2.89999 296.361 5.94999V18.6H311.861V5.94999C311.861 2.89999 311.211 1.99999 306.811 1.99999V0.799988H322.811Z" fill="black" fill-opacity="0.9"/>
<path d="M273.507 41.6C270.457 41.6 267.657 40.2 265.657 38.25C264.857 37.45 264.257 37.5 264.057 38.65L263.607 40.95H262.357L262.457 26H263.757C264.107 33.25 267.907 39.5 273.407 39.5C277.707 39.5 279.557 36.15 279.557 33.05C279.557 28.45 276.007 25.5 271.907 22.4C266.907 18.6 262.707 15.45 262.707 9.55C262.707 3.6 267.007 0 272.657 0C275.557 0 277.557 0.900001 279.307 2.55C280.157 3.3 280.857 3.1 281.007 2L281.257 0.5H282.457L283.057 13.65H281.807C281.307 7.5 278.307 2.05 273.007 2.05C269.307 2.05 267.307 4.75 267.307 7.85C267.307 11.75 270.207 14.15 274.857 17.65C280.057 21.5 284.157 24.95 284.157 31.1C284.157 37.4 279.657 41.6 273.507 41.6Z" fill="black" fill-opacity="0.9"/>
<path d="M249.279 35.65V5.94999C249.279 2.89999 248.629 1.99999 243.979 1.99999V0.799988H260.279V1.99999C255.579 1.99999 254.929 2.89999 254.929 5.94999V35.65C254.929 38.7 255.579 39.6 260.279 39.6V40.8H243.979V39.6C248.629 39.6 249.279 38.7 249.279 35.65Z" fill="black" fill-opacity="0.9"/>
<path d="M242.909 0.799988V1.99999C240.009 1.99999 239.059 2.64999 238.209 5.79999L228.559 41.6H225.859L219.409 14.75L212.309 41.6H209.659L199.709 5.74999C198.809 2.64999 197.859 1.99999 194.909 1.99999V0.799988H208.959V1.99999C204.809 1.99999 204.759 2.84999 205.509 5.79999L212.559 32.75H212.759L218.409 10.7L217.259 5.79999C216.509 2.64999 215.659 1.99999 213.159 1.99999V0.799988H227.059V1.99999C222.609 1.99999 222.409 2.84999 223.059 5.84999L228.909 32.75H229.059L236.059 5.79999C236.809 2.84999 236.709 1.99999 232.209 1.99999V0.799988H242.909Z" fill="black" fill-opacity="0.9"/>
<path d="M195.671 41.6C194.021 41.6 192.721 40.3 192.721 38.65C192.721 37.05 194.021 35.7 195.671 35.7C197.271 35.7 198.621 37.05 198.621 38.65C198.621 40.3 197.271 41.6 195.671 41.6Z" fill="black" fill-opacity="0.9"/>
<path d="M181.027 27.05L185.277 35.35C186.827 38.4 187.627 39.6 191.277 39.6V40.8H188.827C182.177 40.8 181.327 40.15 178.977 35.1L172.427 21.85H171.677C170.727 21.85 169.827 21.8 168.977 21.75V35.65C168.977 38.7 169.677 39.6 174.327 39.6V40.8H158.077V39.6C162.727 39.6 163.377 38.7 163.377 35.65V5.94999C163.377 2.89999 162.727 1.99999 158.077 1.99999V0.799988H173.477C182.427 0.799988 186.427 4.64998 186.427 11C186.427 17.7 181.777 20.65 175.927 21.55C177.927 22.15 179.277 23.25 181.027 27.05ZM168.977 4.69999V19.8C169.877 19.9 170.827 19.95 171.827 19.95C176.927 19.95 180.677 17.45 180.677 11.15C180.677 5.69999 177.877 2.84999 173.027 2.84999C171.977 2.84999 170.927 2.99999 169.877 3.34999C169.227 3.59999 168.977 4.09999 168.977 4.69999Z" fill="black" fill-opacity="0.9"/>
<path d="M153.771 0.799988L153.921 2.29999L154.871 10.9L153.471 11.05C152.721 4.19998 151.571 3.04999 148.021 3.04999H140.871C139.321 3.04999 138.521 3.89999 138.521 5.39999V19.15H144.721C147.671 19.15 148.521 18.4 148.521 13.25H149.671V26.8H148.521C148.521 21.7 147.671 20.95 144.721 20.95H138.521V35.7C138.521 38.05 138.921 38.55 140.871 38.55H147.971C151.721 38.55 153.171 37.1 155.171 29.45L156.571 29.85L154.121 39.35L153.721 40.8H127.571V39.6C132.221 39.6 132.871 38.7 132.871 35.65V5.94999C132.871 2.89999 132.221 1.99999 127.571 1.99999V0.799988H153.771Z" fill="black" fill-opacity="0.9"/>
<path d="M112.85 40.8H97.7V39.6C102.35 39.6 103 38.7 103 35.65V5.94999C103 2.89999 102.35 1.99999 97.7 1.99999V0.799988H113.35C120.65 0.799988 125.5 3.99999 125.5 10.7C125.5 16.25 121.85 19.5 117 20.1V20.35C123.25 20.75 127.35 24.65 127.35 30.05C127.35 37.95 120.85 40.8 112.85 40.8ZM108.55 4.39999V19.1C109.8 19.3 111.1 19.3 112.3 19.3C116.4 19.3 120 16.7 120 10.9C120 5.19999 116.35 2.84999 112.4 2.84999C111.45 2.84999 110.4 2.89999 109.55 3.09999C108.85 3.24999 108.55 3.69999 108.55 4.39999ZM108.55 21.55V37.2C108.55 38.4 109.85 38.75 112.2 38.75C116.9 38.75 121.75 37 121.75 30.1C121.75 23.2 116.2 21.35 112.35 21.35C111.05 21.35 109.8 21.35 108.55 21.55Z" fill="black" fill-opacity="0.9"/>
<path d="M87.5562 27.05L91.8062 35.35C93.3562 38.4 94.1562 39.6 97.8062 39.6V40.8H95.3562C88.7062 40.8 87.8562 40.15 85.5062 35.1L78.9562 21.85H78.2062C77.2562 21.85 76.3562 21.8 75.5062 21.75V35.65C75.5062 38.7 76.2062 39.6 80.8562 39.6V40.8H64.6062V39.6C69.2562 39.6 69.9062 38.7 69.9062 35.65V5.94999C69.9062 2.89999 69.2562 1.99999 64.6062 1.99999V0.799988H80.0062C88.9562 0.799988 92.9562 4.64998 92.9562 11C92.9562 17.7 88.3062 20.65 82.4562 21.55C84.4562 22.15 85.8062 23.25 87.5562 27.05ZM75.5062 4.69999V19.8C76.4062 19.9 77.3562 19.95 78.3562 19.95C83.4562 19.95 87.2062 17.45 87.2062 11.15C87.2062 5.69999 84.4062 2.84999 79.5562 2.84999C78.5062 2.84999 77.4562 2.99999 76.4062 3.34999C75.7562 3.59999 75.5062 4.09999 75.5062 4.69999Z" fill="black" fill-opacity="0.9"/>
<path d="M60.3003 0.799988L60.4503 2.29999L61.4003 10.9L60.0003 11.05C59.2503 4.19998 58.1003 3.04999 54.5503 3.04999H47.4003C45.8503 3.04999 45.0503 3.89999 45.0503 5.39999V19.15H51.2503C54.2003 19.15 55.0503 18.4 55.0503 13.25H56.2003V26.8H55.0503C55.0503 21.7 54.2003 20.95 51.2503 20.95H45.0503V35.7C45.0503 38.05 45.4503 38.55 47.4003 38.55H54.5003C58.2503 38.55 59.7003 37.1 61.7003 29.45L63.1003 29.85L60.6503 39.35L60.2503 40.8H34.1003V39.6C38.7503 39.6 39.4003 38.7 39.4003 35.65V5.94999C39.4003 2.89999 38.7503 1.99999 34.1003 1.99999V0.799988H60.3003Z" fill="black" fill-opacity="0.9"/>
<path d="M17.15 41.6C5.65 41.6 0 32.55 0 21.05C0 8.95 6.35 0 16.9 0C20.45 0 23.25 0.95 25.9 3.2C26.65 3.9 27.25 3.7 27.35 2.75L27.6 0.45H28.8L29.45 14.6H28.3C26.9 6.55 23.45 2.2 17.75 2.2C10.2 2.2 6.1 9.9 6.1 20.4C6.1 31.05 10.15 39.2 17.9 39.2C21.65 39.2 24.25 37.1 25.5 35.15V25.3C25.5 22.25 24.3 21.35 16.15 21.35V20.15H33.85V21.35C31.15 21.35 30.75 22.1 30.75 25.3V34.9C27.9 38.95 23.1 41.6 17.15 41.6Z" fill="black" fill-opacity="0.9"/>
</svg>
